<?xml version="1.0" standalone="no"?>
<!DOCTYPE svg PUBLIC "-//W3C//DTD SVG 20010904//EN"
 "http://www.w3.org/TR/2001/REC-SVG-20010904/DTD/svg10.dtd">
<svg version="1.0" xmlns="http://www.w3.org/2000/svg"
 width="100.000000pt" height="100.000000pt" viewBox="0 0 100.000000 100.000000"
 preserveAspectRatio="xMidYMid meet">

<g transform="translate(0.000000,100.000000) scale(0.100000,-0.100000)"
fill="#000000" stroke="none">
<path d="M235 699 c-4 -17 -4 -62 0 -100 5 -52 12 -72 25 -79 25 -13 63 -13
95 2 19 9 28 9 37 0 7 -7 33 -12 59 -12 58 0 91 25 115 85 9 25 19 45 21 45
13 0 83 -64 83 -75 0 -22 -35 -36 -71 -28 -24 4 -31 3 -27 -7 7 -23 54 -33 84
-18 62 30 57 78 -12 126 -25 18 -48 42 -51 53 -5 19 -6 19 -18 2 -7 -10 -18
-38 -25 -62 -6 -24 -25 -57 -41 -74 -25 -24 -35 -28 -62 -23 -18 3 -40 16 -49
27 -20 24 -24 80 -7 110 9 19 9 19 -10 10 -30 -16 -44 -48 -37 -85 8 -41 -5
-58 -40 -54 -29 3 -29 3 -32 80 l-3 77 32 3 c55 5 48 28 -9 28 -48 0 -51 -1
-57 -31z"/>
<path d="M480 711 c0 -11 31 -24 39 -16 3 3 -1 10 -9 15 -19 12 -30 12 -30 1z"/>
<path d="M248 405 c2 -14 8 -25 12 -25 4 0 10 11 12 25 4 19 1 25 -12 25 -13
0 -16 -6 -12 -25z"/>
<path d="M297 408 c-7 -27 0 -38 9 -14 6 15 7 15 21 -1 14 -17 14 -17 9 0 -3
10 -6 23 -6 28 0 19 -28 8 -33 -13z"/>
<path d="M358 405 c2 -14 8 -25 12 -25 4 0 10 11 12 25 4 19 1 25 -12 25 -13
0 -16 -6 -12 -25z"/>
<path d="M407 408 c-7 -27 0 -38 9 -14 6 15 7 15 21 -1 14 -17 14 -17 9 0 -3
10 -6 23 -6 28 0 19 -28 8 -33 -13z"/>
<path d="M340 315 c0 -14 2 -25 4 -25 2 0 6 11 8 25 3 14 1 25 -3 25 -5 0 -9
-11 -9 -25z"/>
<path d="M441 324 c0 -11 3 -14 6 -6 3 7 2 16 -1 19 -3 4 -6 -2 -5 -13z"/>
<path d="M542 315 c0 -16 2 -22 5 -12 2 9 2 23 0 30 -3 6 -5 -1 -5 -18z"/>
<path d="M620 329 c0 -5 5 -7 10 -4 6 3 10 8 10 11 0 2 -4 4 -10 4 -5 0 -10
-5 -10 -11z"/>
<path d="M281 314 c0 -11 3 -14 6 -6 3 7 2 16 -1 19 -3 4 -6 -2 -5 -13z"/>
<path d="M317 311 c-4 -17 -3 -21 5 -13 5 5 8 16 6 23 -3 8 -7 3 -11 -10z"/>
<path d="M741 304 c0 -11 3 -14 6 -6 3 7 2 16 -1 19 -3 4 -6 -2 -5 -13z"/>
<path d="M508 293 c7 -3 16 -2 19 1 4 3 -2 6 -13 5 -11 0 -14 -3 -6 -6z"/>
<path d="M322 235 c0 -16 2 -22 5 -12 2 9 2 23 0 30 -3 6 -5 -1 -5 -18z"/>
<path d="M422 235 c0 -16 2 -22 5 -12 2 9 2 23 0 30 -3 6 -5 -1 -5 -18z"/>
<path d="M443 245 c-3 -9 -3 -18 -1 -21 3 -3 8 4 11 16 6 23 -1 27 -10 5z"/>
<path d="M490 233 c0 -21 3 -24 9 -14 5 8 7 20 4 28 -8 21 -13 15 -13 -14z"/>
</g>
</svg>
